/* XPM */
static char *del_16[] = {
/* width height num_colors chars_per_pixel */
"    24    24       15            1",
/* colors */
". c #020202",
"# c #141414",
"a c #262626",
"b c #363636",
"c c #4a4a4a",
"d c #545454",
"e c #676767",
"f c #777777",
"g c #868686",
"h c #999999",
"i c #a8a8a8",
"j c #bcbcbc",
"k c #d8d8d8",
"l c #efefef",
"m c None",
/* pixels */
"mmmmmmmmmmmmmmmmmmmmmmmm",
"mmmmmmmmmmmm.mmmmmmmmmmm",
"mmmmmmmmmm..i.mmmmmmmmmm",
"mmmmmmmm..hkkammmmmmmmmm",
"mmmmmm..ijkkkk.mmmmmmmmm",
"mmmm..ijkkkkkki.mmmmmmmm",
"mmm.fejkjkkkkllbmmmmmmmm",
"mmm.lbjkkkkkllll.mmmmmmm",
"mmm.llbjjkkllllli.mmmmmm",
"mmm.llbhkkkllllll.mmmmmm",
"mmm.ldhjjjjjkkllll.mmmmm",
"mmm..ijgggjjjjklllj.mmmm",
"mmm.fjgbccgfghjjlllk#mmm",
"mmm.hjdbbccdedgjkkjig.mm",
"mmmm#fcefbcbdcfgjjjgf.mm",
"mmmm.gcfigfecbbfhgga.mmm",
"mmmmmcbhjjhkdglbigammmmm",
"mmmmma.ikkjlgaaec#mmmmmm",
"mmmmmm.aaaabb.m.mmmmmmmm",
"mmmmmmmmmmmaammmmmmmmmmm",
"mmmmmmmmmmmmmmmmmmmmmmmm",
"mmmmmm.fbbfmmmmmmmmmmmmm",
"mmmmmmm.gk#mmmmmmmmmmmmm",
"mmmmmmmm..mmmmmmmmmmmmmm"
};
