/* XPM */
static char *del_256[] = {
/* width height num_colors chars_per_pixel */
"    24    24       74            2",
/* colors */
".. c #101000",
".# c #3f3f3a",
".a c #484841",
".b c #62645f",
".c c #c6ad63",
".d c #aeae9c",
".e c #b8b8a6",
".f c #cbcbb6",
".g c #d6d6be",
".h c #dbdbc3",
".i c #e1e1c8",
".j c #e7e7ce",
".k c #ededd4",
".l c #f3f3d9",
".m c #000000",
".n c #070706",
".o c #23231f",
".p c #c69c5a",
".q c None",
".r c #313131",
".s c #393939",
".t c #525252",
".u c #7b7b7b",
".v c #210000",
".w c #291808",
".x c #524a39",
".y c #5a4a29",
".z c #5a5242",
".A c #635242",
".B c #734a10",
".C c #735a39",
".D c #7b5221",
".E c #847b63",
".F c #8c7342",
".G c #8c7b5a",
".H c #8c846b",
".I c #940800",
".J c #949484",
".K c #9c1000",
".L c #9c2100",
".M c #9c7b52",
".N c #a51800",
".O c #a57318",
".P c #a57b31",
".Q c #a58439",
".R c #a58442",
".S c #a5a594",
".T c #ad2900",
".U c #ad946b",
".V c #ad9c7b",
".W c #b5a57b",
".X c #b5b59c",
".Y c #bd944a",
".Z c #c62900",
".0 c #c64a08",
".1 c #cead73",
".2 c #ceb57b",
".3 c #cebd8c",
".4 c #d64200",
".5 c #d6c694",
".6 c #decea5",
".7 c #ded6ad",
".8 c #e74a00",
".9 c #e7e7e7",
"#. c #ff6300",
"## c #ff7300",
"#a c #ff9400",
"#b c #ffad00",
"#c c #ffbd00",
"#d c #ffde00",
"#e c #ffef00",
"#f c #ffff00",
"#g c #4a4a4a",
"#h c #ad8c42",
/* pixels */
".q.q.q.q.q.q.q.q.q.q.q.q.q.q.q.q.q.q.q.q.q.q.q.q",
".q.q.q.q.q.q.q.q.q.q.q.q.m.q.q.q.q.q.q.q.q.q.q.q",
".q.q.q.q.q.q.q.q.q.q.m.m.d.m.q.q.q.q.q.q.q.q.q.q",
".q.q.q.q.q.q.q.q.m.m.J.g.h.o.q.q.q.q.q.q.q.q.q.q",
".q.q.q.q.q.q.m.m.S.f.g.h.g.i.m.q.q.q.q.q.q.q.q.q",
".q.q.q.q.m.m.S.f.g.h.g.h.h.i.d.m.q.q.q.q.q.q.q.q",
".q.q.q.m.u.b.f.f.f.h.g.g.i.j.j.r.q.q.q.q.q.q.q.q",
".q.q.q.m.9.r.X.g.g.g.g.i.j.j.j.j.m.q.q.q.q.q.q.q",
".q.q.q.m.9.9.s.f.f.h.i.j.j.j.j.k.S.m.q.q.q.q.q.q",
".q.q.q.m.9.k.#.J.f.7.7.j.j.j.l.k.k.m.q.q.q.q.q.q",
".q.q.q.m.9.t.V.3.3.5.3.5.7.h.k.k.l.k.m.q.q.q.q.q",
".q.q.q.m.n.W.3.R.P#h.3.5.5.3.7.j.l.k.e.m.q.q.q.q",
".q.q.q.m.E.3.H.r.a.x.P.P.R.U.5.5.j.k.j.g...q.q.q",
".q.q.q.m.V.2.z.I.N#g.a.A.C.D.Q.5.6.7.5.c.R.n.q.q",
".q.q.q.q...P.L.4.8.K.L.N.t.y.O.P.5.5.1.R.G.m.q.q",
".q.q.q.q...R.T.8#a#..8.4.L.I.I.P.Y.Q.Q.w.m.q.q.q",
".q.q.q.q.q.a.I###c#b#a#d.Z#.#f.I.p#h.w.q.q.q.q.q",
".q.q.q.q.q.o.m#b#e#d#c#f#..o.o.0.B...q.q.q.q.q.q",
".q.q.q.q.q.q.v.o.o.o.o.I.I.m.q.m.q.q.q.q.q.q.q.q",
".q.q.q.q.q.q.q.q.q.q.q.o.o.q.q.q.q.q.q.q.q.q.q.q",
".q.q.q.q.q.q.q.q.q.q.q.q.q.q.q.q.q.q.q.q.q.q.q.q",
".q.q.q.q.q.q.n.F.I.I.F.q.q.q.q.q.q.q.q.q.q.q.q.q",
".q.q.q.q.q.q.q...M#e...q.q.q.q.q.q.q.q.q.q.q.q.q",
".q.q.q.q.q.q.q.q.m.m.q.q.q.q.q.q.q.q.q.q.q.q.q.q"
};
