/* XPM */
static char *icon_16[] = {
/* width height num_colors chars_per_pixel */
"    56    54       13            1",
/* colors */
". c #020202",
"# c #262626",
"a c #4a4a4a",
"b c #545454",
"c c #676767",
"d c #777777",
"e c #999999",
"f c #a8a8a8",
"g c #bcbcbc",
"h c #d8d8d8",
"i c #efefef",
"j c #fdfdfd",
"k c None",
/* pixels */
"kkkkkkkkkkkkkkkkkkkkkkkkkkkkkkkkkkkkkkkkkkkkkkkkkkkkkkkk",
"kkkkkkkkkkkkkkkkkkkkkkkkkkkkkkkkkkkkkkkkkkkkkkkkkkkkkkkk",
"kkkkkkkkkkkkkkkkkkkkkkkkkkkkkkkkkkkkkkkkkkk#b#kkkkkkkkkk",
"kkkkkkkkkkkkkfeekkkkkkkkkkkkkkkkkkkkkkkkkk#ccb#kkkkkkkkk",
"kkkkkkkkkkkfdcaaekkkkkkkkkkkkkkkkkkkkkk...cbccb#kkkkkkkk",
"kkkkkkkkkkecbab#abehkkkkkkkkkkkkkkkkkk....ccccbb#kkkkkkk",
"kkkkkkfedcbbaaabbbfffkkkkkkkkkkkkkkkkk....bbbccac#kkkkkk",
"kkkkfdbbaaabaaaabfefekkkkkkkkkkkkkkkk.....bcehfdab#kkkkk",
"kkkadabababaa###defedkkkkkkkkkkkkkkkk#...beghehedcc#kkkk",
"kkafcababaaa###b#.dadkkkkkkkkkkkkkkk#cc..dfhfcchdbcb#kkk",
"kkaeaa#aaa#######.#.#kkkkkkkkkkkkkk#cccbcbdghcbhdcccb#kk",
"kkedaccb####..#.#....#kkkkkkkkkkkk#cccccddaehhdhdbccb#kk",
"kkdefbbaa#..##a#aa....bkkkkkkkkkk#cccccbegcdhhifbccb#kkk",
"kkhfff#a#....afifia.....#kkkkkkk#ccccbcbdheehghdcbb#kkkk",
"kkgfef.a#.....gf#ci#.....bkkkkk#ccccbdgcchhhhdghbb#kkkkk",
"kkkfekd#...a..ag#.fg......a#ak#cccbbbchgciefdbcfd#kkkkkk",
"kkkkkkdb...a#..dgbhhdc..dc...#ccbbbddbfhdhecbbbc#kkkkkkk",
"kkkkkkka..fffd..ehgged..##..#cccbdehihbfhhebccb#kkkkkkkk",
"kkkkkkkk#.c##fdchhggeedc...#cccbfghddhfbeebbcb#kkkkkkkkk",
"kkkkkkkkd.fd..ffghggeeghff#cbcccdfheabhbbbcbb#kkkkkkkkkk",
"kkkkkkkkkd#gdheggghfeehjj#ccccbcdfhfbdhcbccb#kkkkkkkkkkk",
"kkkkkkkkkkc#geefggfeefhj#cccbcehhhfhehecccb#kkkkkkkkkkkk",
"kkkkkkkkkkkb#defggfdegh#cbbcbchehhdehgccbb#kkkkkkkkkkkkk",
"kkkkkkkkkkkk#aadeeddfg#cbdebbdhcehdcghcbb#kkkkkkkkkkkkkk",
"kkkkkkkkkkkkk#.affefg#cbehhhbhhbbhfbdfeb#kkkkkkkkkkkkkkk",
"kkkkkkkkkkkkkd.bdggf#ccdhddhghhddhebadd#..kkkkkkkkkkkkkk",
"kkkkkkkkkkkkkkd.dih#cccehdbfhchihhbcbb#...kkkkkkkkkkkkkk",
"kkkkkkkkkkkkkkk#ai#ccbcghechebbcdccbb#f....kkkkkkkkkkkkk",
"kkkkkkkkkkkkkkk###cccbcdehghccbbcbbc#fh##..#kkkkkkkkkkkk",
"kkkkkkkkkkkkkkk.#cccccbbdhhecbccccb#jji##..#kkkkkkkkkkkk",
"kkkkkkkkkkkkkkk#ccccbedbcghfcccccb#jjjjh.#..#kkkkkkkkkkk",
"kkkkkkkkkkkkk.#cccccdhhebgghecccb#jjjjji....#kkkkkkkkkkk",
"kkkkkkkkkkk...cccccbehdhhhffdcbb#jjjjjjh#...#kkkkkkkkkkk",
"kkkkkkkkkk....bccbcddhccghebccb#jjjjjjji#...#kkkkkkkkkkk",
"kkkkkkkkk......eebcehhdbcebcbb#jjjjjjjjh#...#kkkkkkkkkkk",
"kkkkkkkkk.#....hecbeihdbbbcbb#jjjjjjjjji##..#kkkkkkkkkkk",
"kkkkkkkkk.....cdecbehhfccccb#jjjjjjjjjjhb###akkkkkkkkkkk",
"kkkkkkkk#bcbbccbehdehfdccbc#jjjjjjjjjjhga###bkkkkkkkkkkk",
"kkkkkkk#ccdebcbbdhfhgcbcbb#jjjjjjjjjifgea#fggfkkkkkkkkkk",
"kkkkkk#ccbehdcbcbfhgecccb#jjjjjjjjjjhfgggggfggkkkkkkkkkk",
"kkkkkk#bcbcghcbcbdedbccb#jjjjjjjjjjhgfffgfgffgfkkkkkkkkk",
"kkkkkkk#bcbehebbehcbcbb#jjjjjjjjjjjigeffgfggfggkkkkkkkkk",
"kkkkkkkk#bbbehedhebccb#jjjjjjjjjjjjhgeffggfggfghkkkkkkkk",
"kkkkkkkkk#bcchghebccb#cjjjjjjjjjjjjjedeggfggfgfghkkkkkkk",
"kkkkkkkkkk#bbdhebcbb#gfhjjjjjjjjjjjd#effggfgfggfggkkkkkk",
"kkkkkkkkkkf#bccbbcb#gfffhjjjjjjjjib.#effgfggfgfgggkkkkkk",
"kkkkkkkkkkff#bcccb#fgfffghjjjjjhe...aeeggfggfggfgkkkkkkk",
"kkkkkkkkkkeef#bcb#gggfgff#acba#.....aefgfggfgffkkkkkkkkk",
"kkkkkkkkkkkdee#b#fffgffec...........aeegfffeeekkkkkkkkkk",
"kkkkkkkkkkkkkkd.ddeefeeda.##abababa##deeeeekkkkkkkkkkkkk",
"kkkkkkkkkkkkkkkkkedcddcbckkkkkkkkkkkcbddddkkkkkkkkkkkkkk",
"kkkkkkkkkkkkkkkkkkkkkkkkkkkkkkkkkkkkkkkkkkkkkkkkkkkkkkkk",
"kkkkkkkkkkkkkkkkkkkkkkkkkkkkkkkkkkkkkkkkkkkkkkkkkkkkkkkk",
"kkkkkkkkkkkkkkkkkkkkkkkkkkkkkkkkkkkkkkkkkkkkkkkkkkkkkkkk"
};
