/* XPM */
static char *icon_256[] = {
/* width height num_colors chars_per_pixel */
"    56    54      228            2",
/* colors */
".. c #000000",
".# c #000042",
".a c #0000ce",
".b c #000873",
".c c #080000",
".d c #08009c",
".e c #080808",
".f c #081029",
".g c #101010",
".h c #102163",
".i c #10296b",
".j c #1808ce",
".k c #181000",
".l c #181818",
".m c #1839f7",
".n c #184af7",
".o c #1852ff",
".p c #187b00",
".q c #212121",
".r c #214af7",
".s c #292929",
".t c #2952de",
".u c #2952ef",
".v c #295aff",
".w c #2963ef",
".x c #2963ff",
".y c #312100",
".z c #313131",
".A c #314ae7",
".B c #315ade",
".C c #315aef",
".D c #315af7",
".E c #3163ff",
".F c #393118",
".G c #393129",
".H c #393939",
".I c #3939c6",
".J c #394ade",
".K c #3963d6",
".L c #3963ef",
".M c #421018",
".N c #42105a",
".O c #42108c",
".P c #421829",
".Q c #423100",
".R c #424242",
".S c #425ace",
".T c #425ae7",
".U c #4263ef",
".V c #4a4a4a",
".W c #4a5ad6",
".X c #4a63de",
".Y c #4a7318",
".Z c #4a73f7",
".0 c #521094",
".1 c #523900",
".2 c #525252",
".3 c #52527b",
".4 c #526bd6",
".5 c #526be7",
".6 c #52d621",
".7 c #5a00a5",
".8 c #5a3900",
".9 c #5a5a5a",
"#. c #5a73de",
"## c #5a73e7",
"#a c #6373bd",
"#b c #637be7",
"#c c #63ef00",
"#d c #6b4a00",
"#e c #6b6b6b",
"#f c #6b7bde",
"#g c #6b84ef",
"#h c #6b8cd6",
"#i c #734a00",
"#j c #735200",
"#k c #735229",
"#l c #736339",
"#m c #737373",
"#n c #7394de",
"#o c #7b4a00",
"#p c #7b7b39",
"#q c #7b7b7b",
"#r c #7b8cd6",
"#s c #7b8ce7",
"#t c #84394a",
"#u c #845200",
"#v c #848463",
"#w c #848484",
"#x c #848ce7",
"#y c #849ce7",
"#z c #8c1800",
"#A c #8c6b08",
"#B c #8c7329",
"#C c #8c94de",
"#D c #8ca5de",
"#E c #94004a",
"#F c #942121",
"#G c #946300",
"#H c None",
"#I c #94a5ce",
"#J c #94a5e7",
"#K c #94bd4a",
"#L c #94ce4a",
"#M c #94ff4a",
"#N c #9c6300",
"#O c #9c6b08",
"#P c #9c8c73",
"#Q c #9c9c9c",
"#R c #9ca5de",
"#S c #a5005a",
"#T c #a57308",
"#U c #a58c5a",
"#V c #a5a552",
"#W c #a5adb5",
"#X c #a5adde",
"#Y c #a5ff4a",
"#Z c #ad106b",
"#0 c #ad3918",
"#1 c #ad4252",
"#2 c #ad5229",
"#3 c #ad7300",
"#4 c #ad7308",
"#5 c #ad7b21",
"#6 c #ad8c42",
"#7 c #ada584",
"#8 c #adadad",
"#9 c #adb5e7",
"a. c #adbdf7",
"a# c #b5005a",
"aa c #b57b00",
"ab c #b57b08",
"ac c #b58408",
"ad c #b5b5b5",
"ae c #b5bdde",
"af c #b5bde7",
"ag c #bd0000",
"ah c #bd0018",
"ai c #bd004a",
"aj c #bd0073",
"ak c #bd8408",
"al c #bdad8c",
"am c #bdb5a5",
"an c #bdb5ad",
"ao c #bdc6d6",
"ap c #c6105a",
"aq c #c68400",
"ar c #c68c00",
"as c #c68c08",
"at c #c68c18",
"au c #c69408",
"av c #c6bdad",
"aw c #c6c6c6",
"ax c #c6c6ef",
"ay c #c6cede",
"az c #ce0000",
"aA c #ce0029",
"aB c #ce0039",
"aC c #ce0084",
"aD c #ce1000",
"aE c #ce3942",
"aF c #cec6ad",
"aG c #d60084",
"aH c #d69408",
"aI c #d69c00",
"aJ c #d6d6d6",
"aK c #d6deef",
"aL c #de0063",
"aM c #de0073",
"aN c #de1094",
"aO c #de9c08",
"aP c #dea500",
"aQ c #dea508",
"aR c #dead10",
"aS c #dead4a",
"aT c #deb518",
"aU c #deb54a",
"aV c #deb55a",
"aW c #dedede",
"aX c #e70084",
"aY c #e71084",
"aZ c #e7a508",
"a0 c #e7ad08",
"a1 c #e7bd29",
"a2 c #e7bd4a",
"a3 c #e7c608",
"a4 c #e7c64a",
"a5 c #e7c65a",
"a6 c #e7dece",
"a7 c #e7e7ef",
"a8 c #ef0008",
"a9 c #ef0018",
"b. c #ef004a",
"b# c #ef0052",
"ba c #ef396b",
"bb c #ef5a6b",
"bc c #efb508",
"bd c #efbd08",
"be c #efbd10",
"bf c #efbd52",
"bg c #efc639",
"bh c #efce08",
"bi c #efce21",
"bj c #efd610",
"bk c #efd629",
"bl c #efe7c6",
"bm c #efefef",
"bn c #efff21",
"bo c #f70018",
"bp c #f70039",
"bq c #f7397b",
"br c #f7844a",
"bs c #f7bd10",
"bt c #f7bd9c",
"bu c #f7c631",
"bv c #f7ce4a",
"bw c #f7d608",
"bx c #f7d663",
"by c #f7de4a",
"bz c #f7de7b",
"bA c #f7efde",
"bB c #f7f7ef",
"bC c #f7f7f7",
"bD c #ff0008",
"bE c #ff527b",
"bF c #ff737b",
"bG c #ff9494",
"bH c #ffffff",
/* pixels */
"#H#H#H#H#H#H#H#H#H#H#H#H#H#H#H#H#H#H#H#H#H#H#H#H#H#H#H#H#H#H#H#H#H#H#H#H#H#H#H#H#H#H#H#H#H#H#H#H#H#H#H#H#H#H#H#H",
"#H#H#H#H#H#H#H#H#H#H#H#H#H#H#H#H#H#H#H#H#H#H#H#H#H#H#H#H#H#H#H#H#H#H#H#H#H#H#H#H#H#H#H#H#H#H#H#H#H#H#H#H#H#H#H#H",
"#H#H#H#H#H#H#H#H#H#H#H#H#H#H#H#H#H#H#H#H#H#H#H#H#H#H#H#H#H#H#H#H#H#H#H#H#H#H#H#H#H#H#H.i.t.i#H#H#H#H#H#H#H#H#H#H",
"#H#H#H#H#H#H#H#H#H#H#H#H#HbGbbbr#H#H#H#H#H#H#H#H#H#H#H#H#H#H#H#H#H#H#H#H#H#H#H#H#H#H.i.x.E.t.i#H#H#H#H#H#H#H#H#H",
"#H#H#H#H#H#H#H#H#H#H#HbGbqaYaLaAbr#H#H#H#H#H#H#H#H#H#H#H#H#H#H#H#H#H#H#H#H#H#H.....e.x.D.x.E.t.i#H#H#H#H#H#H#H#H",
"#H#H#H#H#H#H#H#H#H#HbFaNaXb.bpag#z.Y.6#M#H#H#H#H#H#H#H#H#H#H#H#H#H#H#H#H#H#H.........E.E.E.v.D.u.i#H#H#H#H#H#H#H",
"#H#H#H#H#H#HbGbEbbaEapaXb.a8aD#0#k.p#c#c#L#H#H#H#H#H#H#H#H#H#H#H#H#H#H#H#H#H.e.......v.u.u.T.C.n.B.i#H#H#H#H#H#H",
"#H#H#H#HbGbaaNaGaja#aLbpbDaz#F#F.Y#L#c#c#K#H#H#H#H#H#H#H#H#H#H#H#H#H#H#H#H.......e...v.T#sbn#J#..n.u.i#H#H#H#H#H",
"#H#H#HaBbaaLb.b#aMaMbpa9aB#E.N.O#q.6#K#K#v#H#H#H#H#H#H#H#H#H#H#H#H#H#H#H#H.h.e.....D#y#9bn#Cbn#C#..v.w.i#H#H#H#H",
"#H#HaAbGaYb.bDbob#b.aB#S.7.j.j.3.O.e#q.R#q#H#H#H#H#H#H#H#H#H#H#H#H#H#H#H.i.x.x....#g#Rbn#X.X.Tbn##.v.w.u.i#H#H#H",
"#H#H#ZbEaCaBagahai#Z.7.j.j.j.O.N.M.e.P...q#H#H#H#H#H#H#H#H#H#H#H#H#H#H.i.x.E.E.D.v.t#.#9bn.U.tbn##.v.E.x.t.i#H#H",
"#H#HbEbb#Z#1#2#t.0.j.j.j.d.d.l.g.P.l...e...H#H#H#H#H#H#H#H#H#H#H#H#H.i.x.E.w.E.v#.#b.m#xbnbn#fbn.5.v.w.E.u.i#H#H",
"#H#Hba#K#K#t#t#t.I.j.a.b.i.z.V.q.V.H.....e...2#H#H#H#H#H#H#H#H#H#H.i.x.E.E.E.x.C#ya..X#.bnbnbn#J.C.x.E.t.i#H#H#H",
"#H#H#Y#c#c#L.7.I.a.a.#.g.e.R#8bm#8bm.V.e.......e.H#H#H#H#H#H#H#H.i.x.D.E.E.u.C.A##bn#C#rbnaobn##.v.u.u.i#H#H#H#H",
"#H#H#M#c#c#K.d.I.h.e.....e.law#8.z#ebm.s...e.......2#H#H#H#H#H.i.x.E.E.E.u.Za..X.Xbnbnbnbn#fafbn.t.C.i#H#H#H#H#H",
"#H#H#H#L#K#H#q.O.e...e.R.g...Vaw.l.e#8aw.e.e.....l.g.H.H.H#H.i.x.E.x.u.v.u.Ubn#9.Xbn#I#J#g.t.K#J#..i#H#H#H#H#H#H",
"#H#H#H#H#H#H#q.2.e...e.2.s.g.c#qaw.2a7byab#G.e.g#e#e.g.....i.x.E.u.v.J###f.J#Dbn#abn#y.C.u.o.u.K.i#H#H#H#H#H#H#H",
"#H#H#H#H#H#H#H.V...g#8#8#8#q.e.e#6bybibhaH#O.l.e.l.s.....i.E.E.D.C###ybnbnbn.S#Dbnbn#g.u.x.E.B.i#H#H#H#H#H#H#H#H",
"#H#H#H#H#H#H#H#H.q..#e.z.q#8#m#ObybvbjbhaHau#p#e...e...i.E.E.x.C#Daebn#f.4bn#X.J#s#s.C.v.E.t.i#H#H#H#H#H#H#H#H#H",
"#H#H#H#H#H#H#H#H#q.e#8#q...laZbda3bybja3aO#VawaW#8#8.i.E.D.x.D.L#f#Wbn#s.m.Sbn.u.u.D.v.u.u.i#H#H#H#H#H#H#H#H#H#H",
"#H#H#H#H#H#H#H#H#H#q.law#qbtaHa3a3bkbwbeau#VaWbHbC.i.E.E.x.D.C.U#b#Xbn#R.J#fbn.C.D.x.E.t.i#H#H#H#H#H#H#H#H#H#H#H",
"#H#H#H#H#H#H#H#H#H#H#e.saw#VaOa0a3bibeaIaualaWbH.i.E.E.E.u.w#ybnbnbn#Rbn#Ibn#y.C.E.E.t.i#H#H#H#H#H#H#H#H#H#H#H#H",
"#H#H#H#H#H#H#H#H#H#H#H.2.M#3aHbcbebiaQak#6awaJ.i.E.u.v.D.v.Xbn#Caxbn#.#gbna..C.v.u.u.i#H#H#H#H#H#H#H#H#H#H#H#H#H",
"#H#H#H#H#H#H#H#H#H#H#H#H.H.1#j#Oauauac#Aalaw.h.E.C###g.B.A#.bn.T#gbn#f.X#9bn.U.u.u.i#H#H#H#H#H#H#H#H#H#H#H#H#H#H",
"#H#H#H#H#H#H#H#H#H#H#H#H#H.q.l.Valal#Vanaw.h.E.C#sbnbnbn.Jbnbn.A.Bbn#J.u#b#D#r.B.h#H#H#H#H#H#H#H#H#H#H#H#H#H#H#H",
"#H#H#H#H#H#H#H#H#H#H#H#H#H#q.g.V#qawawad.i.E.v#gbn#f.4bn#9bnbn#f#fbn#g.u.n###..i....#H#H#H#H#H#H#H#H#H#H#H#H#H#H",
"#H#H#H#H#H#H#H#H#H#H#H#H#H#H#q.e#qa7aW.i.E.x.C#Cbn#..r#9bn.Ubnbnbnbn.C.v.v.t.i......#H#H#H#H#H#H#H#H#H#H#H#H#H#H",
"#H#H#H#H#H#H#H#H#H#H#H#H#H#H#H.s.HbC.i.E.D.v.L#9bn#n.4bn#s.r.C.U#..C.v.u.u.i#8.l...e..#H#H#H#H#H#H#H#H#H#H#H#H#H",
"#H#H#H#H#H#H#H#H#H#H#H#H#H#H#H.s.s.i.E.E.E.u.C#f#Cbnaebn.U.D.v.u.v.v.u.w.iadaJ.l.q.....s#H#H#H#H#H#H#H#H#H#H#H#H",
"#H#H#H#H#H#H#H#H#H#H#H#H#H#H#H.l.i.E.E.w.E.v.u.t#bbnbn#C.C.v.w.E.E.E.t.ibCbCa7.s.q.g.e.q#H#H#H#H#H#H#H#H#H#H#H#H",
"#H#H#H#H#H#H#H#H#H#H#H#H#H#H#H.i.x.E.E.v.C#g#g.t.Taebn#R.U.D.x.E.E.t.ibCbCbCbCaJ.l.q.....z#H#H#H#H#H#H#H#H#H#H#H",
"#H#H#H#H#H#H#H#H#H#H#H#H#H...i.x.E.E.w.D#gbnbn#s.B#9aebn#y.C.E.E.t.ibCbCbCbCbCa7...g.l...s#H#H#H#H#H#H#H#H#H#H#H",
"#H#H#H#H#H#H#H#H#H#H#H...e...E.E.E.E.v.u#gbn#abnbnay#X#J#g.C.v.t.ibCbCbCbCbCbCa7.s.......z#H#H#H#H#H#H#H#H#H#H#H",
"#H#H#H#H#H#H#H#H#H#H.........v.X.L.u.v###abn.W.Safbn#s.C.C.v.t.ibCbCbCbCbCbCbCa7.s.l.....s#H#H#H#H#H#H#H#H#H#H#H",
"#H#H#H#H#H#H#H#H#H............#s#s.v.C#Jbnbn#b.A.U#g.C.v.D.t.ibCbCbCbCbCbCbCbCa7.s.g.e...z#H#H#H#H#H#H#H#H#H#H#H",
"#H#H#H#H#H#H#H#H#H...i.e.....ebn#y.C.u#Ibnbn#f.A.u.v.v.D.u.ibCbCbCbCbCbCbCbCbCa7.s.l.....s#H#H#H#H#H#H#H#H#H#H#H",
"#H#H#H#H#H#H#H#H#H...........E###r.U.t#DbnaK#X.C.x.E.E.t.ibCbCbCbCbCbCbCbCbCbCa7.2.z.s.z.V#H#H#H#H#H#H#H#H#H#H#H",
"#H#H#H#H#H#H#H#H.i.v.w.D.v.E.v.C#nbn.5#Cbn#J#g.C.x.D.C.ibCbCbCbCbCbCbCbCbCbBaJaw.V.s.z.s.2#H#H#H#H#H#H#H#H#H#H#H",
"#H#H#H#H#H#H#H.i.x.D###h.C.v.D.o#.bn#Rbn#9.T.u.v.D.u.ibBbCbCbCbCbCbCbCbCbAbcbg#7.G.G#7a2a4ad#H#H#H#H#H#H#H#H#H#H",
"#H#H#H#H#H#H.i.x.x.u#sbn#f.C.v.D.v#Xbnae#y.C.E.x.t.ibBbCbCbCbCbCbCbCbCbCbla0bebga1bgbubebea3#H#H#H#H#H#H#H#H#H#H",
"#H#H#H#H#H#H.h.t.E.v.Laebn.C.u.v.C#f#s#..C.D.x.t.ibCbCbCbCbCbCbCbCbCbCa7aFa0a0bebebebebebcbeaR#H#H#H#H#H#H#H#H#H",
"#H#H#H#H#H#H#H.i.t.D.C#gbn#y.r.D#ybn.C.D.v.u.u.ibCbCbCbCbCbCbCbCbCbCbCa7avaQaZbebebebebebebebv#H#H#H#H#H#H#H#H#H",
"#H#H#H#H#H#H#H#H.h.t.D.C#rbn#s#fbn#s.u.x.E.u.ibCbCbCbCbCbCbCbCbCbCbCbCa7amara0bebebsbebsbebebebz#H#H#H#H#H#H#H#H",
"#H#H#H#H#H#H#H#H#H.h.t.D.Ubnaxbn#r.C.v.E.t.i#AbCbCbCbCbCbCbCbCbCbCbCbCbB#PakaPbsbebebsbebebsbebebx#H#H#H#H#H#H#H",
"#H#H#H#H#H#H#H#H#H#H.h.t.D#.bn#s.C.D.v.t.ibebcbxbCbCbCbCbCbCbCbCbCbCbC#w.yasa0bebebsbebebebebsbebebg#H#H#H#H#H#H",
"#H#H#H#H#H#H#H#H#H#HaV.i.t.v.C.v.u.v.t.ibsbebcaRbxbCbCbCbCbCbCbCbCa7.2...Qaua0bsbebebebsbebebebsbebg#H#H#H#H#H#H",
"#H#H#H#H#H#H#H#H#H#HaSa0.i.t.x.E.E.t.ibebebebcaTa5a6bCbCbCbCbCa7#Q.g.....8aua0bebsbebebsbebsbebebf#H#H#H#H#H#H#H",
"#H#H#H#H#H#H#H#H#H#HauaQa0.i.t.E.t.ibsbebsbebeaRaS.F.V#e.9.R.q.........e#daHbcbebebsbebebea0aU#H#H#H#H#H#H#H#H#H",
"#H#H#H#H#H#H#H#H#H#H#Habasau.i.t.ia0bcbebebea0as#O.k.........e.....e....#iasaPbebcbca0aQatat#H#H#H#H#H#H#H#H#H#H",
"#H#H#H#H#H#H#H#H#H#H#H#H#H#H#5.fabacasaQaQaOas#T#i.k.l.s.2.2.2.2.2.2.V.q.8#TaqaHaIaHak#H#H#H#H#H#H#H#H#H#H#H#H#H",
"#H#H#H#H#H#H#H#H#H#H#H#H#H#H#H#H#H#U#B#N#4#T#N#o#l#H#H#H#H#H#H#H#H#H#H#H#l#u#Tabaa#O#H#H#H#H#H#H#H#H#H#H#H#H#H#H",
"#H#H#H#H#H#H#H#H#H#H#H#H#H#H#H#H#H#H#H#H#H#H#H#H#H#H#H#H#H#H#H#H#H#H#H#H#H#H#H#H#H#H#H#H#H#H#H#H#H#H#H#H#H#H#H#H",
"#H#H#H#H#H#H#H#H#H#H#H#H#H#H#H#H#H#H#H#H#H#H#H#H#H#H#H#H#H#H#H#H#H#H#H#H#H#H#H#H#H#H#H#H#H#H#H#H#H#H#H#H#H#H#H#H",
"#H#H#H#H#H#H#H#H#H#H#H#H#H#H#H#H#H#H#H#H#H#H#H#H#H#H#H#H#H#H#H#H#H#H#H#H#H#H#H#H#H#H#H#H#H#H#H#H#H#H#H#H#H#H#H#H"
};
