/* XPM */
static char *left_256[] = {
/* width height num_colors chars_per_pixel */
"    24    24       15            1",
/* colors */
". c #000000",
"# c #070706",
"a c #23231f",
"b c #292925",
"c c #c69c5a",
"d c None",
"e c #ffe1a0",
"f c #ffebb0",
"g c #fff5bf",
"h c #ffffcf",
"i c #ffffd8",
"j c #ffffef",
"k c #fffffc",
"l c #fff8c4",
"m c #ffffdf",
/* pixels */
"dddddddddddddddddddddddd",
"dddddddddddddddddddddddd",
"dddddddddddddddddddddddd",
"dddddddddddddddddddddddd",
"dddddddddddddddddddddddd",
"dddddddddd.ddddddddddddd",
"ddddddddd..ddddddddddddd",
"dddddddd.k.ddddddddddddd",
"ddddddd.kj.ddddddddddddd",
"dddddd.kmmb.......#ddddd",
"ddddd.khhikkkkkkkkaddddd",
"dddd.kggggllllllll.ddddd",
"ddddd.cffecccccccc.ddddd",
"dddddd.cee.........ddddd",
"ddddddd.ce.ddddddddddddd",
"dddddddd.c.ddddddddddddd",
"ddddddddd..ddddddddddddd",
"dddddddddd.ddddddddddddd",
"dddddddddddddddddddddddd",
"dddddddddddddddddddddddd",
"dddddddddddddddddddddddd",
"dddddddddddddddddddddddd",
"dddddddddddddddddddddddd",
"dddddddddddddddddddddddd"
};
