/* XPM */
static char * linpopup_tray_xpm[] = {
"24 23 228 2",
"  	c None",
". 	c #000000",
"+ 	c #000042",
"@ 	c #0000CE",
"# 	c #000873",
"$ 	c #080000",
"% 	c #08009C",
"& 	c #080808",
"* 	c #081029",
"= 	c #101010",
"- 	c #102163",
"; 	c #10296B",
"> 	c #1808CE",
", 	c #181000",
"' 	c #181818",
") 	c #1839F7",
"! 	c #184AF7",
"~ 	c #1852FF",
"{ 	c #187B00",
"] 	c #212121",
"^ 	c #214AF7",
"/ 	c #292929",
"( 	c #2952DE",
"_ 	c #2952EF",
": 	c #295AFF",
"< 	c #2963EF",
"[ 	c #2963FF",
"} 	c #312100",
"| 	c #313131",
"1 	c #314AE7",
"2 	c #315ADE",
"3 	c #315AEF",
"4 	c #315AF7",
"5 	c #3163FF",
"6 	c #393118",
"7 	c #393129",
"8 	c #393939",
"9 	c #3939C6",
"0 	c #394ADE",
"a 	c #3963D6",
"b 	c #3963EF",
"c 	c #421018",
"d 	c #42105A",
"e 	c #42108C",
"f 	c #421829",
"g 	c #423100",
"h 	c #424242",
"i 	c #425ACE",
"j 	c #425AE7",
"k 	c #4263EF",
"l 	c #4A4A4A",
"m 	c #4A5AD6",
"n 	c #4A63DE",
"o 	c #4A7318",
"p 	c #4A73F7",
"q 	c #521094",
"r 	c #523900",
"s 	c #525252",
"t 	c #52527B",
"u 	c #526BD6",
"v 	c #526BE7",
"w 	c #52D621",
"x 	c #5A00A5",
"y 	c #5A3900",
"z 	c #5A5A5A",
"A 	c #5A73DE",
"B 	c #5A73E7",
"C 	c #6373BD",
"D 	c #637BE7",
"E 	c #63EF00",
"F 	c #6B4A00",
"G 	c #6B6B6B",
"H 	c #6B7BDE",
"I 	c #6B84EF",
"J 	c #6B8CD6",
"K 	c #734A00",
"L 	c #735200",
"M 	c #735229",
"N 	c #736339",
"O 	c #737373",
"P 	c #7394DE",
"Q 	c #7B4A00",
"R 	c #7B7B39",
"S 	c #7B7B7B",
"T 	c #7B8CD6",
"U 	c #7B8CE7",
"V 	c #84394A",
"W 	c #845200",
"X 	c #848463",
"Y 	c #848484",
"Z 	c #848CE7",
"` 	c #849CE7",
" .	c #8C1800",
"..	c #8C6B08",
"+.	c #8C7329",
"@.	c #8C94DE",
"#.	c #8CA5DE",
"$.	c #94004A",
"%.	c #942121",
"&.	c #946300",
"*.	c #94637B",
"=.	c #94A5CE",
"-.	c #94A5E7",
";.	c #94BD4A",
">.	c #94CE4A",
",.	c #94FF4A",
"'.	c #9C6300",
").	c #9C6B08",
"!.	c #9C8C73",
"~.	c #9C9C9C",
"{.	c #9CA5DE",
"].	c #A5005A",
"^.	c #A57308",
"/.	c #A58C5A",
"(.	c #A5A552",
"_.	c #A5ADB5",
":.	c #A5ADDE",
"<.	c #A5FF4A",
"[.	c #AD106B",
"}.	c #AD3918",
"|.	c #AD4252",
"1.	c #AD5229",
"2.	c #AD7300",
"3.	c #AD7308",
"4.	c #AD7B21",
"5.	c #AD8C42",
"6.	c #ADA584",
"7.	c #ADADAD",
"8.	c #ADB5E7",
"9.	c #ADBDF7",
"0.	c #B5005A",
"a.	c #B57B00",
"b.	c #B57B08",
"c.	c #B58408",
"d.	c #B5B5B5",
"e.	c #B5BDDE",
"f.	c #B5BDE7",
"g.	c #BD0000",
"h.	c #BD0018",
"i.	c #BD004A",
"j.	c #BD0073",
"k.	c #BD8408",
"l.	c #BDAD8C",
"m.	c #BDB5A5",
"n.	c #BDB5AD",
"o.	c #BDC6D6",
"p.	c #C6105A",
"q.	c #C68400",
"r.	c #C68C00",
"s.	c #C68C08",
"t.	c #C68C18",
"u.	c #C69408",
"v.	c #C6BDAD",
"w.	c #C6C6C6",
"x.	c #C6C6EF",
"y.	c #C6CEDE",
"z.	c #CE0000",
"A.	c #CE0029",
"B.	c #CE0039",
"C.	c #CE0084",
"D.	c #CE1000",
"E.	c #CE3942",
"F.	c #CEC6AD",
"G.	c #D60084",
"H.	c #D69408",
"I.	c #D69C00",
"J.	c #D6D6D6",
"K.	c #D6DEEF",
"L.	c #DE0063",
"M.	c #DE0073",
"N.	c #DE1094",
"O.	c #DE9C08",
"P.	c #DEA500",
"Q.	c #DEA508",
"R.	c #DEAD10",
"S.	c #DEAD4A",
"T.	c #DEB518",
"U.	c #DEB54A",
"V.	c #DEB55A",
"W.	c #DEDEDE",
"X.	c #E70084",
"Y.	c #E71084",
"Z.	c #E7A508",
"`.	c #E7AD08",
" +	c #E7BD29",
".+	c #E7BD4A",
"++	c #E7C608",
"@+	c #E7C64A",
"#+	c #E7C65A",
"$+	c #E7DECE",
"%+	c #E7E7EF",
"&+	c #EF0008",
"*+	c #EF0018",
"=+	c #EF004A",
"-+	c #EF0052",
";+	c #EF396B",
">+	c #EF5A6B",
",+	c #EFB508",
"'+	c #EFBD08",
")+	c #EFBD10",
"!+	c #EFBD52",
"~+	c #EFC639",
"{+	c #EFCE08",
"]+	c #EFCE21",
"^+	c #EFD610",
"/+	c #EFD629",
"(+	c #EFE7C6",
"_+	c #EFEFEF",
":+	c #EFFF21",
"<+	c #F70018",
"[+	c #F70039",
"}+	c #F7397B",
"|+	c #F7844A",
"1+	c #F7BD10",
"2+	c #F7BD9C",
"3+	c #F7C631",
"4+	c #F7CE4A",
"5+	c #F7D608",
"6+	c #F7D663",
"7+	c #F7DE4A",
"8+	c #F7DE7B",
"9+	c #F7EFDE",
"0+	c #F7F7EF",
"a+	c #F7F7F7",
"b+	c #FF0008",
"c+	c #FF527B",
"d+	c #FF737B",
"e+	c #FF9494",
"                                                ",
"        e+Y.L.                  . & [ (         ",
"    e+c+X.&+D.E >.              . . : 3 2 ;     ",
"  e+N.G.[+z.%.E ;.              . . : -.! _     ",
"  [.1.V > % ' . . 8         ; [ : D ) H v : ;   ",
"  E x 9 = h 7.l . .       ; 4 5 1 :+@.:+: _     ",
"  E % 9 . ' w._+. & s     [ 5 5 n :+:+f.( 3     ",
"        | 7.O ^+H.u.& ; 5 #.:+H 0 U 3 ;         ",
"        w.2+H.5+u.(.; 5 [ D :+{.3 [ 5           ",
"        / (.O.)+u.l.5 5 _ :+{.:+3 5 (           ",
"          S = w.; 5 H :+8.H I _ ; .             ",
"              ; 4 : P :+U A : _ ' & .           ",
"              5 5 _ :+:+k : _ < ' . .           ",
"        . . 5 : I :+y.-.I ; a+a+%+. .           ",
"        . . : : C :+:+3 3 a+a+a+%+' .           ",
"        & . & _ :+:+: 4 _ a+a+a+%+' .           ",
"    ; [ :+3 : :+` 3 ; a+a+a+a+a+~+~+3+          ",
"    - ( e.3 _ U 3 4 a+a+a+a+a+%+)+)+)+R.        ",
"        3 :+U _ 5 _ a+a+a+a+a+%+)+1+)+)+        ",
"        `.( [ ; )+)+$+a+a+~.. . )+)+)+)+!+      ",
"        Q.; ( 1+1+)+6 G z . . & )+1+)+U.        ",
"            4.s.Q.O., / s s l ] H.H.k.          ",
"                                                "};
