/* XPM */
static char *min_256[] = {
/* width height num_colors chars_per_pixel */
"    24    24      106            2",
/* colors */
".. c #c6c6c6",
".# c #000000",
".a c #070706",
".b c #23231f",
".c c #292925",
".d c None",
".e c #fffffc",
".f c #0000c6",
".g c #009c00",
".h c #08009c",
".i c #0800d6",
".j c #101010",
".k c #1010ce",
".l c #102163",
".m c #10296b",
".n c #181818",
".o c #187b00",
".p c #217300",
".q c #21a500",
".r c #2900bd",
".s c #313131",
".t c #393939",
".u c #3939c6",
".v c #421018",
".w c #42105a",
".x c #424242",
".y c #521094",
".z c #523900",
".A c #525252",
".B c #52d629",
".C c #5a00a5",
".D c #637318",
".E c #735200",
".F c #737373",
".G c #73e739",
".H c #7b7b39",
".I c #7b7b7b",
".J c #840084",
".K c #84394a",
".L c #848463",
".M c #8c1800",
".N c #8c6b00",
".O c #8c8431",
".P c #8c8c4a",
".Q c #94004a",
".R c #942121",
".S c #946300",
".T c #94bd4a",
".U c #9c6b00",
".V c #a5005a",
".W c #a5006b",
".X c #a5a552",
".Y c #ad2173",
".Z c #ad3918",
".0 c #adadad",
".1 c #b5005a",
".2 c #b57b08",
".3 c #b58408",
".4 c #bd0018",
".5 c #bdad8c",
".6 c #bdb5ad",
".7 c #c6105a",
".8 c #c68c08",
".9 c #ce0000",
"#. c #ce0039",
"## c #ce0084",
"#a c #ce1000",
"#b c #ce3942",
"#c c #ce63b5",
"#d c #cecece",
"#e c #d61029",
"#f c #d69408",
"#g c #d6d6d6",
"#h c #de0063",
"#i c #de0073",
"#j c #de9c08",
"#k c #dedede",
"#l c #e71084",
"#m c #e7b508",
"#n c #ef0008",
"#o c #ef0018",
"#p c #ef0029",
"#q c #ef004a",
"#r c #ef396b",
"#s c #ef5a6b",
"#t c #ef7339",
"#u c #efbd08",
"#v c #efc608",
"#w c #efce21",
"#x c #efd610",
"#y c #efd629",
"#z c #efefef",
"#A c #f70039",
"#B c #f7397b",
"#C c #f7d608",
"#D c #f7de4a",
"#E c #f7f7f7",
"#F c #ff527b",
"#G c #ff737b",
"#H c #080000",
"#I c #4a4a4a",
"#J c #6b6b6b",
"#K c #946308",
"#L c #ad8c42",
"#M c #c69408",
"#N c #e7a508",
/* pixels */
".d.d.d.d.d.Y.Y#G.Y#c.Y.Y.d.d.d.d.d.d.d.d.d.d.d.d",
".d.d.d.d#r#F#l#h#l#B#F#F.Y.d.d.d.d.d.d.d.d.d.d.d",
".d.d.d.Y#r###q#A#q#i.7.7#b.Y#F#G.Y.Y.Y.d.d.d.d.d",
".d.X.P.O.K.Y.4#o#p#h#h#h.7.7#l#l#l#B#s.Y.d.d.d.d",
".d.G.q.p.K.Y.Z.4#.#q#h#h#q#q#q#q#q#q#b#s.Y.d.d.d",
".d.T.p.D.P.d.d.d.W.1#.#.#.#p#n#n.9#e#a#t.Y.d.d.d",
".d.K.L.L.d.d.y.u.r.C.C.C.J.V.Q.R.R.Z.M.K.d.d.d.d",
".d.d.d.d.d.d.u.m.l.f.k.k.i.r.y.w.C.Q.D.o.H.d.d.d",
".d.d.d.d.d.I.j.#.a.#.j.j.l.h.l.y.y.K.B.g.B.L.d.d",
".d.d.d.d.d.#.a.#.#.#.a.#.x.c#H.j.v.J.H.o.q.L.d.d",
".d.d.d.d.d.#.j.#.a.A.#.#.A.0.#.t.v.J.L.H.T.K.d.d",
".d.d.d.d.d.a.##g...#.#.a.d.e#z.s.a.#.#.a.d.d.d.d",
".d.d.d.d.d.#.d.s.A...#.##g#I.x.e.#.#.#.#.d.d.d.d",
".d.d.d.d.d.a#z.a.n...a.j#z.a.n.e.#.a.#.a.d.d.d.d",
".d.d.d.d.d.##z.#.#...a.a.e.#.a.e.#.#.#.#.d.d.d.d",
".d.d.d.d.d.a#d.e.3#m#u#K#m#d.e.e.#.#.a.#.d.d.d.d",
".d.d.d.d.d.#.U.8#m#m#v#y#D#x#u#m.#.a.#.#.a.d.d.d",
".d.d.d.d.d.a.2#f#m#v#v#D#x#C#x#M.N.#.#.a.#.d.d.d",
".d.d.d.d.d.#.z#N#u#v#y#x#C#m#f#j.z.a.#.#.a.d.d.d",
".d.d.d.d.d.a.b.E#v#w#w#m#u#f#f#L.j.#.F#J.#.d.d.d",
".d.d.d.d.d.#.F.6#K#m#f#f.8.2.d#d.d.#.#.I.a.#.d.d",
".d.d.d.d.d.a.A.d.d#K.S#K.5.d#k.e#z.#.a.#.#.#.#.d",
".d.d.d.d.#.#.e#g.d.d.d.d.d#k#E.e.e#E.#.#.a.#.a.d",
".d.d.d.#.n.x.e#E.d.d.d..#z.e.e.e#E.e.#.a.#.#.#.#"
};
