/* XPM */
static char *min_16[] = {
/* width height num_colors chars_per_pixel */
"    24    24       16            1",
/* colors */
". c #020202",
"# c #141414",
"a c #262626",
"b c #363636",
"c c #4a4a4a",
"d c #545454",
"e c #676767",
"f c #777777",
"g c #868686",
"h c #999999",
"i c #a8a8a8",
"j c #bcbcbc",
"k c #d8d8d8",
"l c #efefef",
"m c #fdfdfd",
"n c None",
/* pixels */
"nnnnnddhdgddnnnnnnnnnnnn",
"nnnnfgecdfggdnnnnnnnnnnn",
"nnndfccddcdcedghdddnnnnn",
"nhgfddbccccccddedfgdnnnn",
"niedcddbcdcdcdcdcdegdnnn",
"nicegnnnbccbccccbdcgdnnn",
"ndgfnnbcaaabbbbccdbdnnnn",
"nnnnnncaa#aa#abaabecfnnn",
"nnnnnf#...##a#aabdhdhgnn",
"nnnnn.......ba.##bfcegnn",
"nnnnn.#..d..di.babgficnn",
"nnnnn..kj...jmlb....nnnn",
"nnnnn.jbcj..kcbm....nnnn",
"nnnnn.l.#j.#l.#m....nnnn",
"nnnnn.l..j..m..m....nnnn",
"nnnnn.jmgjjeikmm....nnnn",
"nnnnn.fgiijjkjji.....nnn",
"nnnnn.ghijjkjjjhe....nnn",
"nnnnn.bijjjjjihhb....nnn",
"nnnnn.adjjjijhhg#.fe.nnn",
"nnnnn.fjeihhggjjj..f..nn",
"nnnnn.djjeeeijkml......n",
"nnnn..mkjjjjjkmmmm.....n",
"nnn.#cmljjjjlmmmmm......"
};
