/* XPM */
static char *new_256[] = {
/* width height num_colors chars_per_pixel */
"    24    24       69            2",
/* colors */
".. c #101000",
".# c #181800",
".a c #212100",
".b c #292908",
".c c #313110",
".d c #423918",
".e c #947b39",
".f c #a58429",
".g c #ad8421",
".h c #ad8c29",
".i c #bd9429",
".j c #9c945a",
".k c #a58c4a",
".l c #a59452",
".m c #ad945a",
".n c #bda54a",
".o c #bda55a",
".p c #ada563",
".q c #bdad6b",
".r c #d6a531",
".s c #e79408",
".t c #e7a510",
".u c #e7a521",
".v c #e7ad29",
".w c #f7ad31",
".x c #f7bd39",
".y c #c6a542",
".z c #debd5a",
".A c #c6ad63",
".B c #ceb563",
".C c #d6bd63",
".D c #d6bd73",
".E c #e7bd42",
".F c #e7bd52",
".G c #f7bd42",
".H c #efc65a",
".I c #f7c64a",
".J c #e7c663",
".K c #efce6b",
".L c #e7c673",
".M c #f7d673",
".N c #f7d684",
".O c #ffe794",
".P c None",
".Q c #8c7310",
".R c #948429",
".S c #a58c31",
".T c #ad9442",
".U c #b59c5a",
".V c #c6a531",
".W c #c6ad52",
".X c #393110",
".Y c #ad9c5a",
".Z c #b5a563",
".0 c #d6ad31",
".1 c #e7a518",
".2 c #cea542",
".3 c #ceb56b",
".4 c #d6bd6b",
".5 c #e7bd4a",
".6 c #e7bd5a",
".7 c #f7c652",
".8 c #e7c66b",
".9 c #efc663",
"#. c #e7ce73",
"## c #efce73",
"#a c #f7d68c",
"#b c #c6a539",
"#c c #c6a54a",
/* pixels */
".P.P.P.P.P.P.P.P.P.P.P.P.P.P.P.P.P.P.P.P.P.P.P.P",
".P.P.P.P.P.P.P.P.P.P.P.P.P.P.P.P.P.P.P.P.P.P.P.P",
".P.P.P.P.P.P.P.P.P.P.P.P.P.P.P.P.P.P.P.P.P.P.P.P",
".P.P.P.P.P.P.P.P.P.P.X.d.X.X.P.P.P.P.P.P.P.P.P.P",
".P.P.P.P.P.P.P.P.P.d.A.D.L.o.c.P.P.P.P.P.P.P.P.P",
".P.P.P.P.P.P.P.P.b.Z.4.L.D.4.m.#.P.P.P.P.P.P.P.P",
".P.P.P.P.P.P.P.b.Y.D.L.L.L.L.B.l.#.P.P.P.P.P.P.P",
".P.P.P.P.P.P.a.Y.D.L.L#..8.8.C.B.k.#.P.P.P.P.P.P",
".P.P.P.P.P.#.j.3.D#..L.K.J.J.6.z.n.e.#.P.P.P.P.P",
".P.P.P.P.#.p.q.D.L##.L.K.9.F.F.E.y.i.f...P.P.P.P",
".P.P.P.#.#.Y.A.D.L.K.8.J.H.F.E.E.r.h.g.#.#.P.P.P",
".P.P.P.#.O.#.U.A.C.W#c.y.y.y#b.V.f.i.#.v.#.P.P.P",
".P.P.P.##a.N.#.n.T.S.S.e.R.R.f.f.g.#.v.u...P.P.P",
".P.P.P.##a.N#..#.e.#.#...#.#...Q.#.v.v.u...P.P.P",
".P.P.P.#.N#..K.9.#.z.F.5.E.w.0.#.0.u.u.1...P.P.P",
".P.P.P.####..8.#.6.H.5.5.x.r.w.0.#.u.u.1...P.P.P",
".P.P.P.#.M.8.#.J.5.5.5.E.w.2.v.v.u...1.1...P.P.P",
".P.P.P.#.9.#.J.5.F.G.E.v.2.v.v.u.u.u...t.#.P.P.P",
".P.P.P.#.#.9.6.I.F.E.w.2.v.v.v.u.1.1.t...#.P.P.P",
".P.P.P.#.9.F.7.5.5.v.2.v.v.u.u.u.1.t.s.s...P.P.P",
".P.P.P.#.#.#...#...#.#.#.#.#.....#...#...#.P.P.P",
".P.P.P.P.P.P.P.P.P.P.P.P.P.P.P.P.P.P.P.P.P.P.P.P",
".P.P.P.P.P.P.P.P.P.P.P.P.P.P.P.P.P.P.P.P.P.P.P.P",
".P.P.P.P.P.P.P.P.P.P.P.P.P.P.P.P.P.P.P.P.P.P.P.P"
};
