/* XPM */
static char *reply_256[] = {
/* width height num_colors chars_per_pixel */
"    24    24       85            2",
/* colors */
".. c #101000",
".# c #181800",
".a c #212100",
".b c #292908",
".c c #313110",
".d c #24272c",
".e c #3f3f3a",
".f c #423918",
".g c #484841",
".h c #4e4e45",
".i c #484d50",
".j c #54595a",
".k c #62645f",
".l c #696a60",
".m c #6f6f65",
".n c #6c7070",
".o c #76766b",
".p c #6c7685",
".q c #737e8e",
".r c #7b8696",
".s c #947b39",
".t c #a58429",
".u c #ad8421",
".v c #ad8c29",
".w c #bd9429",
".x c #9c945a",
".y c #818278",
".z c #a58c4a",
".A c #a59452",
".B c #ad945a",
".C c #bda54a",
".D c #bda55a",
".E c #ada563",
".F c #bdad6b",
".G c #d6a531",
".H c #e79408",
".I c #e7a510",
".J c #e7a521",
".K c #e7ad29",
".L c #f7ad31",
".M c #f7bd39",
".N c #c6a542",
".O c #debd5a",
".P c #c6ad63",
".Q c #ceb563",
".R c #d6bd63",
".S c #d6bd73",
".T c #e7bd42",
".U c #e7bd52",
".V c #f7bd42",
".W c #efc65a",
".X c #f7c64a",
".Y c #e7c663",
".Z c #efce6b",
".0 c #e7c673",
".1 c #f7d673",
".2 c #aeae9c",
".3 c #b8b8a6",
".4 c #cbcbb6",
".5 c #d6d6be",
".6 c #f7d684",
".7 c #ffe794",
".8 c #dbdbc3",
".9 c #e1e1c8",
"#. c #e7e7ce",
"## c #ededd4",
"#a c #f3f3d9",
"#b c None",
"#c c #737373",
"#d c #393110",
"#e c #ad9c5a",
"#f c #b5a563",
"#g c #d6ad31",
"#h c #e7a518",
"#i c #cea542",
"#j c #ceb56b",
"#k c #d6bd6b",
"#l c #e7bd4a",
"#m c #e7bd5a",
"#n c #f7c652",
"#o c #e7c66b",
"#p c #efc663",
"#q c #e7ce73",
"#r c #efce73",
"#s c #f7d68c",
/* pixels */
"#b#b#b#b#b#b#b#b#b#b#b#b#b#b#b#b#b#b#b#b#b#b#b#b",
"#b#b#b#b#b#b#b#b#b#b#b#b#b#b#b#b#b#b#b#b#b#b#b#b",
"#b#b#b#b#b#b#b#b#b#b#b#b#b#b#b#b#b#b#b#b#b#b#b#b",
"#b#b#b#b#b#b#b#b#b#b#d.f#d#d#b#b#b#b#b#b#b#b#b#b",
"#b#b#b#b#b#b#b#b#b.f.P.S.0.D.c#b#b#b#b#b#b#b#b#b",
"#b#b#b#b#b#b#b#b.b#f#k.0.S#k.B.##b#b#b#b#b#b#b#b",
"#b#b#b#b#b#b#b.b#e.i.h.r.0.0.Q.A.##b#b#b#b#b#b#b",
"#b#b#b#b#b#b.a#e.p.o.9.l.q#o.R.Q.z.##b#b#b#b#b#b",
"#b#b#b#b#b.#.x#j.k.8##.8.y.d#m.O.C.s.##b#b#b#b#b",
"#b#b#b#b.#.E.F.e#.#a#a####.4.g.T.N.w.t..#b#b#b#b",
"#b#b#b.#.##e.r.3#a###a#a#####..m.j.v.u.#.##b#b#b",
"#b#b#b.#.7.##c#a#a#a###a###.#..8.2.n.#.K.##b#b#b",
"#b#b#b.##s.6.############.#..9.9.8.#.K.J..#b#b#b",
"#b#b#b.##s.6#q.##..#.#...#.#...5.#.K.K.J..#b#b#b",
"#b#b#b.#.6#q.Z#p.#.O.U#l.T.L#g.##g.J.J#h..#b#b#b",
"#b#b#b.##r#q#o.##m.W#l#l.M.G.L#g.#.J.J#h..#b#b#b",
"#b#b#b.#.1#o.#.Y#l#l#l.T.L#i.K.K.J..#h#h..#b#b#b",
"#b#b#b.##p.#.Y#l.U.V.T.K#i.K.K.J.J.J...I.##b#b#b",
"#b#b#b.#.##p#m.X.U.T.L#i.K.K.K.J#h#h.I...##b#b#b",
"#b#b#b.##p.U#n#l#l.K#i.K.K.J.J.J#h.I.H.H..#b#b#b",
"#b#b#b.#.#.#...#...#.#.#.#.#.....#...#...##b#b#b",
"#b#b#b#b#b#b#b#b#b#b#b#b#b#b#b#b#b#b#b#b#b#b#b#b",
"#b#b#b#b#b#b#b#b#b#b#b#b#b#b#b#b#b#b#b#b#b#b#b#b",
"#b#b#b#b#b#b#b#b#b#b#b#b#b#b#b#b#b#b#b#b#b#b#b#b"
};
