/* XPM */
static char *right_256[] = {
/* width height num_colors chars_per_pixel */
"    24    24       15            1",
/* colors */
". c #000000",
"# c #070706",
"a c #23231f",
"b c #292925",
"c c #c69c5a",
"d c None",
"e c #ffe1a0",
"f c #ffebb0",
"g c #fff5bf",
"h c #ffffcf",
"i c #ffffd8",
"j c #ffffef",
"k c #fffffc",
"l c #fff8c4",
"m c #ffffdf",
/* pixels */
"dddddddddddddddddddddddd",
"dddddddddddddddddddddddd",
"dddddddddddddddddddddddd",
"dddddddddddddddddddddddd",
"dddddddddddddddddddddddd",
"ddddddddddddd.dddddddddd",
"ddddddddddddd..ddddddddd",
"ddddddddddddd.k.dddddddd",
"ddddddddddddd.jk.ddddddd",
"ddddd#.......bmmk.dddddd",
"dddddakkkkkkkkihhk.ddddd",
"ddddd.llllllllggggk.dddd",
"ddddd.cccccccceffc.ddddd",
"ddddd.........eec.dddddd",
"ddddddddddddd.ec.ddddddd",
"ddddddddddddd.c.dddddddd",
"ddddddddddddd..ddddddddd",
"ddddddddddddd.dddddddddd",
"dddddddddddddddddddddddd",
"dddddddddddddddddddddddd",
"dddddddddddddddddddddddd",
"dddddddddddddddddddddddd",
"dddddddddddddddddddddddd",
"dddddddddddddddddddddddd"
};
